<svg width="151" height="58" viewBox="0 0 151 58" fill="none" xmlns="http://www.w3.org/2000/svg">
<g clip-path="url(#clip0_1930_1250)">
<path d="M99.0258 31.7895V42.9674C99.0258 43.5675 98.6508 44.0926 98.1069 44.3365C98.1069 44.3365 98.0881 44.3365 98.0694 44.3365C95.5374 45.3305 91.7302 46.0244 87.229 46.0244C78.508 46.0244 73.9131 42.8736 73.9131 36.9283C73.9131 29.5576 80.0084 26.1442 90.8487 26.6881C90.6049 23.8374 88.917 22.0744 84.8847 22.0744C82.8029 22.0744 80.7961 22.5058 79.1832 23.1247C78.9957 23.1997 78.8081 23.2372 78.6018 23.2372C77.9266 23.2372 77.3452 22.7871 77.1389 22.1682L76.3325 20.0864C76.2762 19.9176 76.2387 19.7488 76.2387 19.5613C76.2387 18.9236 76.6325 18.3797 77.1952 18.1547C79.7083 17.0294 82.7654 16.2042 86.4038 16.3355C93.9245 16.6355 99.0258 20.5928 99.0258 28.7887V31.7332V31.7895ZM90.8675 41.542V30.5516C86.1225 30.1765 82.2027 31.9207 82.2027 36.4969C82.2027 39.8353 84.2095 41.8233 87.6792 41.8233C89.9297 41.8233 90.8675 41.542 90.8675 41.542Z" fill="#0068A6"/>
<path fill-rule="evenodd" clip-rule="evenodd" d="M24.5501 45.6681C23.8749 45.6681 23.3123 45.218 23.1247 44.599C23.1247 44.599 23.1247 44.5803 23.1247 44.5615L21.1367 37.6222H9.77128L7.68949 44.5803C7.50195 45.2179 6.92054 45.6681 6.24537 45.6681H1.50039C0.675175 45.6681 0 44.9929 0 44.1677C0 44.0176 0.0187549 43.8676 0.0750194 43.7176V43.6801L11.3467 9.09608C11.5342 8.45842 12.1156 8.0083 12.7908 8.0083H19.2425C19.9177 8.0083 20.4803 8.43966 20.6679 9.03982L31.8833 43.6613C31.9395 43.8113 31.9583 43.9801 31.9583 44.1489C31.9583 44.9741 31.3019 45.6493 30.4767 45.6493H24.5314L24.5501 45.6681ZM19.9177 32.5209H11.0841L14.5913 20.2552C15.3602 17.5733 15.5665 15.7165 15.5665 15.7165H15.6791C15.6791 15.7165 15.8479 17.6295 16.5605 20.2552L19.8989 32.5209H19.9177Z" fill="#0068A6"/>
<path d="M32.9141 7.95208C32.9141 7.35192 33.2704 6.82678 33.7768 6.58297L38.5593 4.08857C38.8218 3.91978 39.2157 3.80725 39.5345 3.80725C40.3597 3.80725 41.0349 4.48243 41.0349 5.30764C41.0349 5.34515 41.0349 36.7971 41.0349 36.7971C41.0537 38.6725 42.7041 40.1729 44.5983 40.1729C45.4236 40.1729 46.0987 40.8481 46.0987 41.6733V44.1115C46.0987 44.9367 45.4236 45.6118 44.5983 45.6118H42.9479C37.3965 45.6118 32.9141 41.1107 32.9141 35.578V7.95208Z" fill="#0068A6"/>
<path fill-rule="evenodd" clip-rule="evenodd" d="M62.9225 40.5293C62.2285 40.9606 61.1407 41.2232 60.0155 41.2232C55.8331 41.2232 54.1264 38.1099 54.1264 31.5832C54.1264 24.6814 55.8894 21.193 60.1842 21.193C61.3095 21.193 62.2848 21.3618 62.9225 21.6806V40.5293ZM70.1806 18.061C70.7057 18.3048 71.0621 18.8299 71.0621 19.4488V45.3868C71.0621 53.5827 65.9607 57.5587 58.44 57.84C54.7828 57.9901 51.7258 57.1461 49.2314 56.0208C48.6688 55.7957 48.2749 55.2519 48.2749 54.6142C48.2749 54.4266 48.3124 54.2391 48.3687 54.0891L49.1751 52.0073C49.3627 51.3883 49.9441 50.9382 50.638 50.9382C50.8443 50.9382 51.0506 50.9757 51.2194 51.0508C52.8323 51.6884 54.8579 52.1198 56.9209 52.1198C61.3095 52.1198 62.9225 50.038 62.9225 46.6996V45.0867C61.966 45.6306 60.2968 46.0057 57.8774 46.0057C50.9569 46.0057 45.9868 40.6981 45.9868 32.0708C45.9868 22.4308 50.9193 16.373 60.8219 16.373C64.6667 16.373 67.9863 17.0482 70.1431 18.0422C70.1431 18.0422 70.1806 18.0422 70.1806 18.061Z" fill="#0068A6"/>
<path d="M103.096 20.0677C103.096 18.9049 103.921 17.9484 104.99 17.5921C107.766 16.6356 111.423 16.1667 116.881 16.3167H116.918C117.743 16.3167 118.418 16.9919 118.418 17.8171V19.8614C118.418 20.7054 117.743 21.3805 116.918 21.3805C116.862 21.3805 116.806 21.3805 116.749 21.3805C114.724 21.2118 112.286 21.6244 111.235 22.112V44.224C111.217 45.0304 110.541 45.6869 109.735 45.6869H104.615C103.79 45.6869 103.114 45.0117 103.114 44.1865C103.114 44.149 103.114 44.1302 103.114 44.0927V20.0865V20.0677H103.096Z" fill="#0068A6"/>
<path d="M124.457 17.8359C124.457 17.3295 124.739 16.8418 125.207 16.5793C125.714 16.2792 126.314 16.3167 126.764 16.6168C126.764 16.6168 135.485 21.6431 135.504 21.6618C135.935 21.9432 136.216 22.412 136.216 22.9559C136.216 23.5373 135.879 24.0437 135.41 24.2875C135.41 24.2875 126.689 29.3326 126.67 29.3326C126.22 29.5764 125.676 29.5952 125.189 29.3326C124.682 29.0325 124.42 28.5074 124.438 27.9635V17.8546L124.457 17.8359Z" fill="#009FE3"/>
<path d="M138.448 25.9005C138.448 25.3941 138.73 24.9065 139.199 24.6439C139.705 24.3626 140.305 24.3813 140.755 24.6814C140.755 24.6814 149.476 29.7265 149.495 29.7265C149.926 30.0078 150.208 30.4767 150.208 31.0206C150.208 31.602 149.889 32.1083 149.401 32.3522C149.401 32.3522 140.68 37.3972 140.661 37.3972C140.211 37.641 139.649 37.6598 139.18 37.3972C138.673 37.1159 138.411 36.572 138.43 36.0281V25.9192L138.448 25.9005Z" fill="#FFCC00"/>
<path d="M124.457 33.9838C124.457 33.4774 124.739 32.9898 125.207 32.7272C125.714 32.4459 126.314 32.4646 126.764 32.7647C126.764 32.7647 135.485 37.8098 135.504 37.8098C135.935 38.0911 136.216 38.56 136.216 39.1039C136.216 39.6853 135.879 40.1917 135.41 40.4355C135.41 40.4355 126.689 45.4805 126.67 45.4805C126.22 45.7243 125.676 45.7431 125.189 45.4805C124.682 45.1992 124.42 44.6553 124.438 44.1114V34.0025L124.457 33.9838Z" fill="#009640"/>
<path fill-rule="evenodd" clip-rule="evenodd" d="M116.018 8.58973C116.018 10.2777 115.793 11.6655 114.686 11.6655C113.58 11.6655 113.336 10.2777 113.336 8.58973C113.336 6.90179 113.561 5.43891 114.686 5.43891C115.811 5.43891 116.018 6.90179 116.018 8.58973ZM118.531 8.62724C118.531 5.81401 117.199 3.75098 114.667 3.75098C112.135 3.75098 110.841 5.81401 110.841 8.62724C110.841 11.4405 112.173 13.5223 114.686 13.5223C117.199 13.5223 118.531 11.4405 118.531 8.62724Z" fill="#878787"/>
<path fill-rule="evenodd" clip-rule="evenodd" d="M108.403 3.97607H109.66C109.922 3.97607 110.147 4.20113 110.147 4.46369V5.40144C110.147 5.664 109.922 5.88906 109.66 5.88906H108.403V10.5028C108.403 11.1029 108.947 11.5718 109.528 11.5718C109.791 11.5718 110.016 11.7781 110.016 12.0594V12.8471C110.016 13.1097 109.547 13.3347 109.285 13.3347H108.759C106.978 13.3347 105.796 11.8906 105.796 10.1277V5.88906H105.252C104.99 5.88906 104.765 5.68276 104.765 5.40144V4.46369C104.765 4.20113 104.971 3.97607 105.252 3.97607H105.796V2.71949C105.796 2.51319 105.909 2.34439 106.077 2.26937L107.597 1.46291C107.597 1.46291 107.803 1.36914 107.915 1.36914C108.178 1.36914 108.403 1.57544 108.403 1.85677V3.97607Z" fill="#878787"/>
<path fill-rule="evenodd" clip-rule="evenodd" d="M82.033 3.97607H83.2896C83.5521 3.97607 83.7772 4.20113 83.7772 4.46369V5.40144C83.7772 5.664 83.5521 5.88906 83.2896 5.88906H82.033V10.5028C82.033 11.1029 82.5769 11.5718 83.1583 11.5718C83.4208 11.5718 83.6459 11.7781 83.6459 12.0594V12.8471C83.6459 13.1097 83.4396 13.3347 83.1583 13.3347H82.6331C80.8514 13.3347 79.426 11.8906 79.426 10.1277V5.88906H78.8822C78.6196 5.88906 78.3945 5.68276 78.3945 5.40144V4.46369C78.3945 4.20113 78.6196 3.97607 78.8822 3.97607H79.426V2.71949C79.426 2.51319 79.5386 2.34439 79.7074 2.26937L81.2453 1.46291C81.2453 1.46291 81.4516 1.36914 81.5641 1.36914C81.8267 1.36914 82.0517 1.57544 82.0517 1.85677V3.97607H82.033Z" fill="#878787"/>
<path fill-rule="evenodd" clip-rule="evenodd" d="M92.6487 3.97607H93.9053C94.1678 3.97607 94.3929 4.20113 94.3929 4.46369V5.40144C94.3929 5.664 94.1866 5.88906 93.9053 5.88906H92.6487V10.5028C92.6487 11.1029 93.1738 11.5718 93.774 11.5718C94.0366 11.5718 94.2616 11.7781 94.2616 12.0594V12.8471C94.2616 13.1097 93.7927 13.3347 93.5302 13.3347H93.005C91.2421 13.3347 90.0418 11.8906 90.0418 10.1277V5.88906H89.4979C89.2353 5.88906 89.0103 5.68276 89.0103 5.40144V4.46369C89.0103 4.20113 89.2353 3.97607 89.4979 3.97607H90.0418V2.71949C90.0418 2.51319 90.1543 2.34439 90.3231 2.26937L91.861 1.46291C91.861 1.46291 92.0673 1.36914 92.1798 1.36914C92.4424 1.36914 92.6675 1.57544 92.6675 1.85677V3.97607H92.6487Z" fill="#878787"/>
<path d="M71.7936 11.6092C71.8687 11.4217 72.0375 11.2904 72.2625 11.2904C72.3375 11.2904 72.4126 11.2904 72.4688 11.3279C72.8064 11.4779 73.219 11.5905 73.6504 11.5905C74.3256 11.5905 74.7944 11.1591 74.7944 10.5777C74.7944 9.95879 74.4756 9.6212 73.6129 9.28362C71.9249 8.6272 71.5498 7.68945 71.5498 6.73295C71.5498 5.15755 72.7689 3.90097 74.6256 3.90097C75.6009 3.90097 76.3323 4.06976 76.97 4.3886C77.0825 4.44486 77.1763 4.57615 77.1763 4.72618C77.1763 4.78245 77.1763 4.83871 77.1388 4.87622L76.8575 5.5514C76.7824 5.73895 76.6136 5.85148 76.3886 5.85148C76.3136 5.85148 76.2385 5.85148 76.1823 5.81397C75.9197 5.70144 75.5821 5.60766 75.2258 5.60766C74.5319 5.60766 74.1755 6.03903 74.1755 6.56416C74.1755 7.18307 74.6444 7.52066 75.3571 7.82074C77.12 8.57093 77.5326 9.43366 77.5326 10.5027C77.5326 12.0968 76.2198 13.4097 74.0442 13.4097C73.1065 13.4097 72.2438 13.2034 71.6624 12.9221C71.5311 12.8658 71.4561 12.7345 71.4561 12.5845C71.4561 12.5282 71.4561 12.4907 71.4748 12.4532L71.8124 11.6092H71.7936Z" fill="#878787"/>
<path fill-rule="evenodd" clip-rule="evenodd" d="M58.1401 1.87547C58.1401 1.59415 58.3652 1.38785 58.6278 1.38785H60.2594C60.522 1.38785 60.7471 1.59415 60.7471 1.87547V12.9033C60.7471 13.1659 60.522 13.3722 60.2594 13.3722H58.6278C58.3652 13.3722 58.1401 13.1471 58.1401 12.8846V1.87547Z" fill="#878787"/>
<path d="M100.958 4.48242C100.958 4.21985 101.164 4.01355 101.427 4.01355H102.927C103.19 4.01355 103.396 4.21985 103.396 4.48242V10.0151C103.396 12.1532 101.502 13.5035 99.2698 13.5035C97.038 13.5035 95.6313 12.1719 95.6313 10.0151V4.48242C95.6313 4.21985 95.8377 4.01355 96.1002 4.01355H97.8069C98.0695 4.01355 98.2758 4.21985 98.2758 4.48242V9.99635C98.2758 10.9904 98.8572 11.4967 99.6261 11.4967C100.395 11.4967 100.958 10.9904 100.958 9.9776V4.48242Z" fill="#878787"/>
<path fill-rule="evenodd" clip-rule="evenodd" d="M87.8105 12.8846C87.8105 13.1659 87.5855 13.3722 87.3229 13.3722H85.6912C85.4287 13.3722 85.2036 13.1472 85.2036 12.8846V4.50118C85.2036 4.21985 85.4287 4.01355 85.6912 4.01355H87.3229C87.5855 4.01355 87.8105 4.21985 87.8105 4.50118V12.8846Z" fill="#878787"/>
<path d="M85.2036 1.20031C85.2036 0.543891 85.785 0 86.5165 0C87.2479 0 87.8293 0.525136 87.8293 1.20031C87.8293 1.87549 87.2479 2.40062 86.5165 2.40062C85.785 2.40062 85.2036 1.85673 85.2036 1.20031Z" fill="#878787"/>
<path d="M70.2551 12.8846C70.2551 13.1659 70.03 13.3722 69.7674 13.3722H68.1358C67.8732 13.3722 67.6481 13.1471 67.6481 12.8846V6.86424C67.6481 6.20782 67.3481 5.57015 66.2603 5.57015C65.7351 5.57015 65.3413 5.66393 65.0225 5.7577V12.8846C65.0225 13.1471 64.7974 13.3534 64.5348 13.3534H62.9032C62.6406 13.3534 62.4155 13.1284 62.4155 12.8658V5.47638C62.4155 4.89498 62.7906 4.42611 63.3158 4.27607C64.1222 4.05101 65.135 3.90097 66.2978 3.90097C69.2423 3.90097 70.1988 5.15755 70.1988 6.84548V12.8846H70.2551Z" fill="#878787"/>
</g>
<defs>
<clipPath id="clip0_1930_1250">
<rect width="150.245" height="57.84" fill="white"/>
</clipPath>
</defs>
</svg>
